<?xml version="1.0" encoding="UTF-8" standalone="no"?>
<svg width="512px" height="512px" viewBox="0 0 512 512" version="1.1" xmlns="http://www.w3.org/2000/svg" xmlns:xlink="http://www.w3.org/1999/xlink" xmlns:sketch="http://www.bohemiancoding.com/sketch/ns">
    <!-- Generator: Sketch 3.5.2 (25235) - http://www.bohemiancoding.com/sketch -->
    <title>Icon Template</title>
    <desc>Created with Sketch.</desc>
    <defs></defs>
    <g id="Page-1" stroke="none" stroke-width="1" fill="none" fill-rule="evenodd" sketch:type="MSPage">
        <g id="Icon-Template" sketch:type="MSArtboardGroup" fill="#4A4A4A">
            <g id="Group" sketch:type="MSLayerGroup" transform="translate(21.000000, 81.000000)">
                <path d="M251.151224,30.0966533 C278.535154,30.0966533 300.747489,52.3529187 300.747489,79.8199001 L300.747489,351.479242 C300.747489,378.946222 278.535154,401.202487 251.151224,401.202487 L251.151224,430.419879 C294.684411,430.419879 329.96488,395.069633 329.96488,351.479242 L329.96488,79.8199001 C329.96488,36.2295079 294.684411,0.879261991 251.151224,0.879261991 L251.151224,30.0966533 L251.151224,30.0966533 Z" id="Shape" sketch:type="MSShapeGroup"></path>
                <path d="M379.562344,0.879261991 C336.029159,0.879261991 300.748688,36.2295085 300.748688,79.8199001 L300.748688,351.479242 C300.748688,395.069632 336.029159,430.419879 379.562344,430.419879 L379.562344,401.202487 C352.178415,401.202487 329.96608,378.946221 329.96608,351.479242 L329.96608,79.8199001 C329.96608,52.3529194 352.178415,30.0966533 379.562344,30.0966533 L379.562344,0.879261991 L379.562344,0.879261991 Z" id="Shape" sketch:type="MSShapeGroup"></path>
                <path d="M454.950604,308.019251 L15.4642522,308.019251 L30.0729479,322.627947 L30.0729479,108.671195 L15.4642522,123.279891 L454.950604,123.279891 L440.341908,108.671195 L440.341908,322.627947 L454.950604,308.019251 L454.950604,308.019251 Z M454.950604,337.236642 L469.559299,337.236642 L469.559299,322.627947 L469.559299,108.671195 L469.559299,94.0624993 L454.950604,94.0624993 L15.4642522,94.0624993 L0.855556597,94.0624993 L0.855556597,108.671195 L0.855556597,322.627947 L0.855556597,337.236642 L15.4642522,337.236642 L454.950604,337.236642 L454.950604,337.236642 Z" id="Shape" sketch:type="MSShapeGroup"></path>
            </g>
        </g>
    </g>
</svg>