<?xml version="1.0" encoding="UTF-8" standalone="no"?>
<svg width="26px" height="12px" viewBox="0 0 26 12" version="1.1" xmlns="http://www.w3.org/2000/svg" xmlns:xlink="http://www.w3.org/1999/xlink" xmlns:sketch="http://www.bohemiancoding.com/sketch/ns">
    <!-- Generator: Sketch 3.5.2 (25235) - http://www.bohemiancoding.com/sketch -->
    <title>radio</title>
    <desc>Created with Sketch.</desc>
    <defs></defs>
    <g id="-" stroke="none" stroke-width="1" fill="none" fill-rule="evenodd" sketch:type="MSPage">
        <g id="Group-5-Copy" sketch:type="MSLayerGroup" transform="translate(-160.000000, -375.000000)">
            <g id="Group-3" transform="translate(27.000000, 182.000000)" sketch:type="MSShapeGroup">
                <g id="Group-18" transform="translate(30.000000, 191.000000)">
                    <g id="Group-15" transform="translate(99.000000, 2.000000)">
                        <g id="radio" transform="translate(17.202083, 6.076715) rotate(-270.000000) translate(-17.202083, -6.076715) translate(12.000000, -6.000000)">
                            <path d="M5.14668115,13.8452672 C2.30421552,13.8452672 -7.09375e-05,16.152867 -7.09375e-05,18.9994198 L-7.09375e-05,18.9994198 C-7.09375e-05,21.8459726 2.30421552,24.1533356 5.14668115,24.1533356 C7.98914677,24.1533356 10.2934332,21.8459726 10.2934332,18.9994198 L10.2934332,18.9994198 C10.2934332,16.152867 7.98914677,13.8452672 5.14668115,13.8452672 L5.14668115,13.8452672 Z" id="Stroke-1" stroke="#4A4A4A" stroke-width="1.5" stroke-linecap="round" stroke-linejoin="round"></path>
                            <path d="M5.14668115,0.233648919 C2.30421552,0.233648919 -7.09375e-05,2.54124871 -7.09375e-05,5.38780152 L-7.09375e-05,5.38780152 C-7.09375e-05,8.23435432 2.30421552,10.5417173 5.14668115,10.5417173 C7.98914677,10.5417173 10.2934332,8.23435432 10.2934332,5.38780152 L10.2934332,5.38780152 C10.2934332,2.54124871 7.98914677,0.233648919 5.14668115,0.233648919 L5.14668115,0.233648919 Z" id="Stroke-3" stroke="#4A4A4A" stroke-width="1.5" stroke-linecap="round" stroke-linejoin="round"></path>
                            <path d="M5.14275594,7.17802062 C4.15908927,7.17802062 3.35891427,6.37669505 3.35891427,5.39161397 C3.35891427,4.40227052 4.15908927,3.59739297 5.14275594,3.59739297 C6.13067885,3.59739297 6.93440073,4.40227052 6.93440073,5.39161397 C6.93440073,6.37669505 6.13067885,7.17802062 5.14275594,7.17802062" id="Fill-5" stroke="#4A4A4A" fill="#4A4A4A"></path>
                            <path d="M5.14275594,2.88709268 C3.76585906,2.88709268 2.64953927,4.00501763 2.64953927,5.39170869 C2.64953927,6.77224299 3.76585906,7.88851035 5.14275594,7.88851035 C6.52130802,7.88851035 7.64377573,6.77224299 7.64377573,5.39170869 C7.64377573,4.00501763 6.52745594,2.88709268 5.14275594,2.88709268" id="Fill-7" fill="#221F20"></path>
                        </g>
                    </g>
                </g>
            </g>
        </g>
    </g>
</svg>