<?xml version="1.0" encoding="UTF-8" standalone="no"?>
<svg width="27px" height="17px" viewBox="0 0 27 17" version="1.1" xmlns="http://www.w3.org/2000/svg" xmlns:xlink="http://www.w3.org/1999/xlink" xmlns:sketch="http://www.bohemiancoding.com/sketch/ns">
    <!-- Generator: Sketch 3.5.2 (25235) - http://www.bohemiancoding.com/sketch -->
    <title>select</title>
    <desc>Created with Sketch.</desc>
    <defs></defs>
    <g id="-" stroke="none" stroke-width="1" fill="none" fill-rule="evenodd" sketch:type="MSPage">
        <g id="Group-5-Copy" sketch:type="MSLayerGroup" transform="translate(-247.000000, -239.000000)">
            <g id="Group-3" transform="translate(27.000000, 182.000000)" sketch:type="MSShapeGroup">
                <g id="Group-20" transform="translate(30.000000, 54.000000)">
                    <g id="Group-10" transform="translate(184.000000, 4.000000)">
                        <g id="select" transform="translate(7.433333, 0.000000)">
                            <path d="M20.8637833,14.8433811 L3.11304851,14.8433811 C1.39368858,14.8433811 -2.17971592e-05,13.4476667 -2.17971592e-05,11.7258345 L-2.17971592e-05,3.22712567 C-2.17971592e-05,1.50529347 1.39368858,0.109579078 3.11304851,0.109579078 L20.8637833,0.109579078 C22.5831432,0.109579078 23.9768536,1.50529347 23.9768536,3.22712567 L23.9768536,11.7258345 C23.9768536,13.4476667 22.5831432,14.8433811 20.8637833,14.8433811 L20.8637833,14.8433811 Z" id="Stroke-1" stroke="#4A4A4A" stroke-width="1.5" stroke-linecap="round" stroke-linejoin="round"></path>
                            <path d="M16.4297179,8.83611194 C16.0107765,8.83611194 15.8008698,9.34340632 16.0970932,9.64005566 L17.7521516,11.2974938 C17.8439176,11.3893918 17.9642379,11.4354499 18.0847762,11.4354499 C18.2050965,11.4354499 18.3254169,11.3893918 18.4171829,11.2974938 L20.0722412,9.64005566 C20.3684646,9.34340632 20.158558,8.83611194 19.7396166,8.83611194 L16.4297179,8.83611194 Z" id="Fill-3" fill="#4A4A4A"></path>
                            <path d="M18.0847326,3.51744474 C17.9644123,3.51744474 17.844092,3.56350288 17.752108,3.65540087 L16.0970497,5.31283899 C15.8008263,5.60948833 16.0107329,6.11678271 16.4296743,6.11678271 L19.739573,6.11678271 C20.1587323,6.11678271 20.368639,5.60948833 20.0721976,5.31283899 L18.4171393,3.65540087 C18.3253733,3.56350288 18.2050529,3.51744474 18.0847326,3.51744474 M18.6769614,4.58158419 L18.6780513,4.58158419 L18.6769614,4.58158419" id="Fill-5" fill="#4A4A4A"></path>
                        </g>
                    </g>
                </g>
            </g>
        </g>
    </g>
</svg>