<?xml version="1.0" encoding="UTF-8" standalone="no"?>
<svg width="25px" height="23px" viewBox="0 0 25 23" version="1.1" xmlns="http://www.w3.org/2000/svg" xmlns:xlink="http://www.w3.org/1999/xlink" xmlns:sketch="http://www.bohemiancoding.com/sketch/ns">
    <!-- Generator: Sketch 3.5.2 (25235) - http://www.bohemiancoding.com/sketch -->
    <title>text-input</title>
    <desc>Created with Sketch.</desc>
    <defs></defs>
    <g id="-" stroke="none" stroke-width="1" fill="none" fill-rule="evenodd" sketch:type="MSPage">
        <g id="Group-5-Copy" sketch:type="MSLayerGroup" transform="translate(-72.000000, -235.000000)" stroke="#4A4A4A" stroke-width="1.5" stroke-linecap="round" stroke-linejoin="round">
            <g id="Group-3" transform="translate(27.000000, 182.000000)" sketch:type="MSShapeGroup">
                <g id="Group-20" transform="translate(30.000000, 54.000000)">
                    <g id="Group-8">
                        <g id="text-input" transform="translate(16.000000, 0.000000)">
                            <path d="M12.7666923,0.616569254 L12.7666923,0.616569254 C14.5871094,0.616569254 16.0629291,2.09530785 16.0629291,3.91932523 L16.0629291,17.8661218 C16.0629291,19.6901391 14.5871094,21.1688777 12.7666923,21.1688777 L12.7666923,21.1688777" id="Stroke-1"></path>
                            <path d="M19.3592275,0.616569254 L19.3592275,0.616569254 C17.5388105,0.616569254 16.0629907,2.09530785 16.0629907,3.91932523 L16.0629907,17.8661218 C16.0629907,19.6901391 17.5388105,21.1688777 19.3592275,21.1688777 L19.3592275,21.1688777" id="Stroke-3"></path>
                            <path d="M23.1782676,16.3849169 L0.615352236,16.3849169 L0.615352236,5.4005301 L23.1782676,5.4005301 L23.1782676,16.3849169 Z" id="Stroke-5"></path>
                        </g>
                    </g>
                </g>
            </g>
        </g>
    </g>
</svg>