<?xml version="1.0" encoding="UTF-8" standalone="no"?>
<svg width="512px" height="512px" viewBox="0 0 512 512" version="1.1" xmlns="http://www.w3.org/2000/svg" xmlns:xlink="http://www.w3.org/1999/xlink" xmlns:sketch="http://www.bohemiancoding.com/sketch/ns">
    <!-- Generator: Sketch 3.5.2 (25235) - http://www.bohemiancoding.com/sketch -->
    <title>Icon Template</title>
    <desc>Created with Sketch.</desc>
    <defs></defs>
    <g id="Page-1" stroke="none" stroke-width="1" fill="none" fill-rule="evenodd" sketch:type="MSPage">
        <g id="Icon-Template" sketch:type="MSArtboardGroup">
            <path d="M371.281883,156.149841 L371.281883,72 L350,72 L350,156.149841 L371.281883,156.149841 L371.281883,156.149841 Z" id="Shape" fill="#4A4A4A" sketch:type="MSShapeGroup"></path>
            <path d="M161.281883,156.149841 L161.281883,72 L140,72 L140,156.149841 L161.281883,156.149841 L161.281883,156.149841 Z" id="Shape" fill="#4A4A4A" sketch:type="MSShapeGroup"></path>
            <path d="M418.308709,365.643084 L93.6409415,365.643084 L104.281883,376.386677 L104.281883,122.743593 L93.6409415,133.487187 L418.308709,133.487187 L407.667767,122.743593 L407.667767,376.386677 L418.308709,365.643084 L418.308709,365.643084 Z M418.308709,387.13027 L428.94965,387.13027 L428.94965,376.386677 L428.94965,122.743593 L428.94965,112 L418.308709,112 L93.6409415,112 L83,112 L83,122.743593 L83,376.386677 L83,387.13027 L93.6409415,387.13027 L418.308709,387.13027 L418.308709,387.13027 Z" id="Shape" fill="#4A4A4A" sketch:type="MSShapeGroup"></path>
            <path d="M203.529358,304 C195.522408,304 189,310.556062 189,318.645422 C189,326.741238 195.522408,333.332808 203.529358,333.332808 C211.5395,333.332808 218.014019,326.741238 218.014019,318.645422 C218.014019,310.556062 211.5395,304 203.529358,304" id="Fill-7" fill="#221F20" sketch:type="MSShapeGroup"></path>
            <path d="M256.529357,304 C248.522408,304 242,310.556062 242,318.690613 C242,326.78643 248.522408,333.332808 256.529357,333.332808 C264.539499,333.332808 271.058714,326.78643 271.058714,318.690613 C271.058714,310.556062 264.539499,304 256.529357,304" id="Fill-8" fill="#221F20" sketch:type="MSShapeGroup"></path>
            <path d="M150.529357,251 C142.522408,251 136,257.556062 136,265.690613 C136,273.776746 142.522408,280.332808 150.529357,280.332808 C158.536307,280.332808 165.058715,273.776746 165.058715,265.690613 C165.058715,257.556062 158.536307,251 150.529357,251" id="Fill-9" fill="#221F20" sketch:type="MSShapeGroup"></path>
            <path d="M150.529357,304 C142.522408,304 136,310.556062 136,318.645422 C136,326.741238 142.522408,333.332808 150.529357,333.332808 C158.536307,333.332808 165.058715,326.741238 165.058715,318.645422 C165.058715,310.556062 158.536307,304 150.529357,304" id="Fill-10" fill="#221F20" sketch:type="MSShapeGroup"></path>
            <path d="M203.529358,251 C195.484097,251 189,257.556062 189,265.690613 C189,273.776746 195.522408,280.332808 203.529358,280.332808 C211.5395,280.332808 218.014019,273.776746 218.014019,265.690613 C218.014019,257.556062 211.5395,251 203.529358,251" id="Fill-11" fill="#221F20" sketch:type="MSShapeGroup"></path>
            <path d="M359.484661,251 C351.484096,251 345,257.556062 345,265.690613 C345,273.776746 351.484096,280.332808 359.484661,280.332808 C367.49161,280.332808 374.014018,273.776746 374.014018,265.690613 C374.014018,257.556062 367.529922,251 359.484661,251" id="Fill-12" fill="#221F20" sketch:type="MSShapeGroup"></path>
            <path d="M359.484661,199 C351.484096,199 345,205.556062 345,213.690614 C345,221.78643 351.484096,228.332808 359.484661,228.332808 C367.49161,228.332808 374.014018,221.78643 374.014018,213.690614 C374.014018,205.556062 367.529922,199 359.484661,199" id="Fill-13" fill="#221F20" sketch:type="MSShapeGroup"></path>
            <path d="M256.529357,199 C248.484097,199 242,205.556062 242,213.690614 C242,221.78643 248.484097,228.332808 256.529357,228.332808 C264.52673,228.332808 271.014019,221.78643 271.014019,213.690614 C271.014019,205.556062 264.52673,199 256.529357,199" id="Fill-14" fill="#221F20" sketch:type="MSShapeGroup"></path>
            <path d="M203.529358,199 C195.522408,199 189,205.556062 189,213.690614 C189,221.78643 195.522408,228.332808 203.529358,228.332808 C211.5395,228.332808 218.014019,221.78643 218.014019,213.690614 C218.014019,205.556062 211.5395,199 203.529358,199" id="Fill-15" fill="#221F20" sketch:type="MSShapeGroup"></path>
            <path d="M256.529357,251 C248.484097,251 242,257.556062 242,265.690613 C242,273.776746 248.522408,280.332808 256.529357,280.332808 C264.52673,280.332808 271.014019,273.776746 271.014019,265.690613 C271.014019,257.556062 264.52673,251 256.529357,251" id="Fill-16" fill="#221F20" sketch:type="MSShapeGroup"></path>
            <path d="M309.529357,199 C301.484097,199 295,205.556062 295,213.690614 C295,221.78643 301.484097,228.332808 309.529357,228.332808 C317.52673,228.332808 324.014019,221.78643 324.014019,213.690614 C324.014019,205.556062 317.52673,199 309.529357,199" id="Fill-17" fill="#221F20" sketch:type="MSShapeGroup"></path>
            <path d="M309.529357,251 C301.484097,251 295,257.556062 295,265.690613 C295,273.776746 301.522408,280.332808 309.529357,280.332808 C317.52673,280.332808 324.014019,273.776746 324.014019,265.690613 C324.014019,257.556062 317.52673,251 309.529357,251" id="Fill-18" fill="#221F20" sketch:type="MSShapeGroup"></path>
            <path d="M309.529357,304 C301.522408,304 295,310.556062 295,318.690613 C295,326.78643 301.522408,333.332808 309.529357,333.332808 C317.536307,333.332808 324.058714,326.78643 324.058714,318.690613 C324.058714,310.556062 317.536307,304 309.529357,304" id="Fill-19" fill="#221F20" sketch:type="MSShapeGroup"></path>
        </g>
    </g>
</svg>